<svg width="131" height="142" viewBox="0 0 131 142" fill="none" xmlns="http://www.w3.org/2000/svg">
<path d="M22.825 98.8752C46.2059 121.345 80.608 129.216 89.4195 130.63C83.3793 88.9138 43.1988 59.5448 0.455738 68.2935C-5.28722 117.992 44.2954 155.13 90.0445 136.619C90.0429 136.583 90.0393 136.548 90.0371 136.513C41.4987 130.591 22.825 98.8752 22.825 98.8752Z" fill="white"/>
<path d="M130.547 68.2934C125.683 67.2977 120.646 66.7744 115.488 66.7744C98.1323 66.7744 82.1721 72.7109 69.4917 82.642C75.9072 88.5371 81.3516 95.4785 85.5742 103.193C95.5542 97.5357 111.029 87.9895 116.476 80.2017C109.654 92.6275 101.567 98.3197 87.8835 107.766C91.7052 115.957 94.1965 124.901 95.0339 134.343C116.365 123.545 131 101.437 131 75.8929C131 73.3199 130.835 70.788 130.547 68.2934Z" fill="white"/>
<path d="M47.6955 42.2478L52.4388 70.0277C55.8875 71.5652 59.1957 73.3756 62.3391 75.4289L53.5575 41.002C60.1677 37.941 64.2148 28.0823 62.0074 17.6975C59.5609 6.18625 50.3576 -1.61 41.4498 0.283294C32.5424 2.17658 27.3061 13.0423 29.7522 24.5536C31.9596 34.9387 39.6677 42.2976 47.6955 42.2478Z" fill="white"/>
<path d="M78.4847 42.8182L70.3083 74.8734C73.4101 72.905 76.6321 71.1893 79.9618 69.7431L84.3461 44.065C91.6291 43.9561 97.1048 36.1221 99.3129 25.7367C100.035 22.3377 101.708 13.1523 100.502 7.3924C100.407 6.93485 100.005 6.60672 99.5363 6.60672C99.069 6.60607 98.6667 6.93225 98.5679 7.38915L94.0577 28.614C93.9602 29.0755 93.6818 29.4797 93.286 29.735C92.8909 29.9928 92.409 30.0819 91.9469 29.9844L91.8448 29.9623C90.8838 29.7581 90.2705 28.813 90.4734 27.8521L94.9637 6.7316C95.1865 5.68675 94.5198 4.66076 93.475 4.43865L93.4398 4.43149C92.9381 4.32483 92.4148 4.42174 91.9846 4.70108C91.5544 4.9801 91.2539 5.41911 91.1472 5.92024L86.6569 27.0407C86.5577 27.5028 86.2816 27.9057 85.8852 28.1633C85.4901 28.4212 85.0082 28.5103 84.5461 28.4121L84.4452 28.39C83.4843 28.1854 82.8697 27.2407 83.0749 26.2798L87.5629 5.15895C87.6696 4.6575 87.572 4.13394 87.2936 3.70436C87.0137 3.27412 86.5746 2.97266 86.0742 2.86535C85.0095 2.63999 83.9646 3.31867 83.7389 4.38239L79.2577 25.4677C79.1592 25.9298 78.8818 26.3341 78.486 26.5903C78.0896 26.8472 77.6074 26.9363 77.1469 26.8388L77.0448 26.8167C76.0838 26.6131 75.4705 25.6674 75.6744 24.7058L80.2054 3.39119C80.3 2.9486 80.0802 2.49885 79.6743 2.29951C79.2688 2.10016 78.7774 2.20163 78.4847 2.54666C74.7099 7.00509 72.3363 16.0055 71.5233 19.8295C69.3162 30.215 71.1304 39.5991 78.4847 42.8182Z" fill="white"/>
</svg>
