<svg width="323" height="104" viewBox="0 0 323 104" fill="none" xmlns="http://www.w3.org/2000/svg">
<path d="M16.7267 72.4581C33.8608 88.9242 59.0715 94.6925 65.5288 95.7287C61.1024 65.1581 31.6571 43.6358 0.333976 50.0471C-3.8746 86.4675 32.4607 113.683 65.9868 100.117C65.9856 100.091 65.983 100.066 65.9814 100.04C30.4112 95.7001 16.7267 72.4581 16.7267 72.4581Z" fill="#019934"/>
<path d="M95.6679 50.047C92.1035 49.3173 88.4125 48.9338 84.6324 48.9338C71.914 48.9338 60.2179 53.2842 50.9254 60.562C55.6268 64.8821 59.6166 69.9689 62.7111 75.6221C70.0246 71.4764 81.3647 64.4808 85.3569 58.7737C80.3571 67.8796 74.4308 72.051 64.4033 78.9737C67.204 84.976 69.0297 91.5306 69.6433 98.4494C85.2751 90.5368 96.0001 74.3357 96.0001 55.6161C95.9998 53.7306 95.879 51.8751 95.6679 50.047Z" fill="#019934"/>
<path d="M34.9525 30.9602L38.4285 51.318C40.9558 52.4447 43.3801 53.7714 45.6836 55.2761L39.2483 30.0473C44.0924 27.8041 47.0582 20.5794 45.4406 12.9692C43.6477 4.53343 36.9033 -1.17984 30.3755 0.207605C23.8479 1.59505 20.0106 9.55775 21.8032 17.9935C23.4208 25.604 29.0695 30.9967 34.9525 30.9602Z" fill="#F6921E"/>
<path d="M57.5157 31.3782L51.5238 54.869C53.7968 53.4265 56.158 52.1692 58.5981 51.1094L61.811 32.2918C67.1482 32.212 71.1609 26.4711 72.779 18.8604C73.3083 16.3696 74.5339 9.63822 73.6503 5.41725C73.5809 5.08194 73.2859 4.84148 72.9427 4.84148C72.6003 4.84101 72.3055 5.08003 72.2331 5.41486L68.9279 20.969C68.8564 21.3071 68.6524 21.6033 68.3624 21.7904C68.0729 21.9794 67.7197 22.0447 67.381 21.9732L67.3062 21.957C66.602 21.8073 66.1525 21.1148 66.3012 20.4106L69.5919 4.93299C69.7551 4.1673 69.2666 3.41543 68.5009 3.25266L68.4751 3.24742C68.1074 3.16925 67.724 3.24027 67.4087 3.44498C67.0934 3.64945 66.8732 3.97117 66.795 4.33841L63.5044 19.816C63.4317 20.1547 63.2294 20.4499 62.9389 20.6387C62.6494 20.8276 62.2962 20.8929 61.9575 20.821L61.8837 20.8048C61.1795 20.6549 60.7291 19.9626 60.8794 19.2584L64.1684 3.78052C64.2465 3.41305 64.175 3.02937 63.971 2.71456C63.7659 2.39927 63.4441 2.17835 63.0774 2.09971C62.2971 1.93456 61.5314 2.43192 61.3661 3.21143L58.0821 18.6633C58.0099 19.0019 57.8066 19.2982 57.5166 19.486C57.2261 19.6742 56.8727 19.7395 56.5353 19.668L56.4604 19.6518C55.7562 19.5026 55.3068 18.8096 55.4562 18.1049L58.7766 2.48506C58.8459 2.16072 58.6848 1.83114 58.3874 1.68505C58.0902 1.53897 57.7301 1.61332 57.5157 1.86617C54.7493 5.13342 53.0099 11.7292 52.4141 14.5315C50.7967 22.1422 52.1263 29.0191 57.5157 31.3782Z" fill="#F6921E"/>
<path d="M120.4 58V41.59L119.8 38.59L120.4 36.76H130.57C131.99 36.76 133.36 36.9 134.68 37.18C136.02 37.44 137.21 37.94 138.25 38.68C139.31 39.42 140.15 40.48 140.77 41.86C141.39 43.24 141.7 45.03 141.7 47.23C141.7 49.43 141.38 51.24 140.74 52.66C140.12 54.06 139.28 55.15 138.22 55.93C137.16 56.71 135.97 57.25 134.65 57.55C133.33 57.85 131.97 58 130.57 58H120.4ZM127.06 52.3H129.34C130.52 52.3 131.51 52.17 132.31 51.91C133.13 51.65 133.75 51.16 134.17 50.44C134.59 49.7 134.8 48.63 134.8 47.23C134.8 45.81 134.58 44.77 134.14 44.11C133.72 43.43 133.1 42.99 132.28 42.79C131.48 42.57 130.5 42.46 129.34 42.46H127.06V52.3ZM145.302 58L144.702 56.2L145.302 53.2V36.76H160.752L162.252 37.66L160.272 42.76L157.572 42.46H151.962V44.86H159.372V49.81H155.232L151.962 49.51V52.3H160.272L163.842 56.08L162.072 58H145.302ZM173.6 58.3C172.5 58.3 171.41 58.2 170.33 58C169.27 57.82 168.33 57.58 167.51 57.28C166.69 56.98 166.1 56.68 165.74 56.38V50.11C166.5 50.53 167.35 50.91 168.29 51.25C169.23 51.59 170.18 51.86 171.14 52.06C172.12 52.24 173.05 52.33 173.93 52.33C175.15 52.33 175.76 52.05 175.76 51.49C175.76 51.21 175.63 50.98 175.37 50.8C175.13 50.6 174.7 50.39 174.08 50.17C173.46 49.95 172.58 49.67 171.44 49.33C170.12 48.91 168.99 48.47 168.05 48.01C167.13 47.55 166.42 46.96 165.92 46.24C165.44 45.52 165.2 44.56 165.2 43.36C165.2 41.28 166.03 39.61 167.69 38.35C169.35 37.09 171.78 36.46 174.98 36.46C175.62 36.46 176.3 36.49 177.02 36.55C177.76 36.59 178.35 36.65 178.79 36.73L182.48 39.22L180.98 43.78L173.3 41.83C172.5 41.83 172.1 42.1 172.1 42.64C172.1 43.06 172.35 43.41 172.85 43.69C173.37 43.95 174.3 44.31 175.64 44.77C177.42 45.37 178.83 45.99 179.87 46.63C180.93 47.25 181.69 47.96 182.15 48.76C182.61 49.56 182.84 50.51 182.84 51.61C182.84 53.61 182.07 55.23 180.53 56.47C178.99 57.69 176.68 58.3 173.6 58.3ZM186.194 58V41.59L185.894 38.59L186.194 36.76H192.794V44.89H199.064V36.76H205.664V48.04L205.964 50.11V58H199.064V50.38H192.794V52.48L193.094 58H186.194ZM209.866 58V41.56L209.566 38.56L209.866 36.76H216.496V58H209.866Z" fill="#019934"/>
<path d="M227.89 58V41.59L227.29 38.59L227.92 36.79H234.91L240.79 47.29H241.39L246.25 36.79H253.42L253.72 38.59L253.42 41.47V58H246.79L246.88 55.45V47.08H246.55L245.41 50.23L243.25 55H238.45L234.91 47.08H234.61V49.51L234.91 58H227.89ZM255.82 58L257.26 52.93V49.12L259.48 48.22L263.68 36.79H272.71L277.84 50.23L280.15 54.49V58H273.64L272.14 53.53H264.01L262.72 58H255.82ZM265.99 48.28H270.49L268.51 42.31H267.88L265.99 48.28ZM282.851 58V41.59L282.251 38.56L282.851 36.76H293.651C295.271 36.76 296.661 37.02 297.821 37.54C298.981 38.06 299.871 38.9 300.491 40.06C301.111 41.2 301.421 42.71 301.421 44.59C301.421 46.33 301.131 47.76 300.551 48.88C299.971 50 299.121 50.85 298.001 51.43L298.511 51.85L300.581 54.67L302.291 56.2V58H294.341L291.041 52.51H289.451V53.17L289.751 56.17L289.451 58H282.851ZM289.451 46.9H291.191C291.891 46.9 292.491 46.87 292.991 46.81C293.511 46.75 293.911 46.57 294.191 46.27C294.471 45.95 294.611 45.44 294.611 44.74C294.611 44 294.461 43.47 294.161 43.15C293.861 42.83 293.441 42.64 292.901 42.58C292.381 42.5 291.771 42.46 291.071 42.46H289.151L289.451 46.9ZM309.2 58V42.49L303.2 42.79V36.76H321.95V42.79L315.8 42.49V53.2L316.13 56.2L315.8 58H309.2Z" fill="black"/>
<path d="M132.248 68.32C134.024 68.32 135.576 68.664 136.904 69.352C138.248 70.024 139.28 71 140 72.28C140.736 73.544 141.104 75.024 141.104 76.72C141.104 78.416 140.736 79.888 140 81.136C139.28 82.384 138.248 83.344 136.904 84.016C135.576 84.672 134.024 85 132.248 85H126.8V68.32H132.248ZM132.248 82.768C134.2 82.768 135.696 82.24 136.736 81.184C137.776 80.128 138.296 78.64 138.296 76.72C138.296 74.784 137.776 73.272 136.736 72.184C135.696 71.096 134.2 70.552 132.248 70.552H129.536V82.768H132.248ZM155.936 78.064C155.936 78.56 155.904 79.008 155.84 79.408H145.736C145.816 80.464 146.208 81.312 146.912 81.952C147.616 82.592 148.48 82.912 149.504 82.912C150.976 82.912 152.016 82.296 152.624 81.064H155.576C155.176 82.28 154.448 83.28 153.392 84.064C152.352 84.832 151.056 85.216 149.504 85.216C148.24 85.216 147.104 84.936 146.096 84.376C145.104 83.8 144.32 83 143.744 81.976C143.184 80.936 142.904 79.736 142.904 78.376C142.904 77.016 143.176 75.824 143.72 74.8C144.28 73.76 145.056 72.96 146.048 72.4C147.056 71.84 148.208 71.56 149.504 71.56C150.752 71.56 151.864 71.832 152.84 72.376C153.816 72.92 154.576 73.688 155.12 74.68C155.664 75.656 155.936 76.784 155.936 78.064ZM153.08 77.2C153.064 76.192 152.704 75.384 152 74.776C151.296 74.168 150.424 73.864 149.384 73.864C148.44 73.864 147.632 74.168 146.96 74.776C146.288 75.368 145.888 76.176 145.76 77.2H153.08ZM163.428 85.216C162.388 85.216 161.452 85.032 160.62 84.664C159.804 84.28 159.156 83.768 158.676 83.128C158.196 82.472 157.94 81.744 157.908 80.944H160.74C160.788 81.504 161.052 81.976 161.532 82.36C162.028 82.728 162.644 82.912 163.38 82.912C164.148 82.912 164.74 82.768 165.156 82.48C165.588 82.176 165.804 81.792 165.804 81.328C165.804 80.832 165.564 80.464 165.084 80.224C164.62 79.984 163.876 79.72 162.852 79.432C161.86 79.16 161.052 78.896 160.428 78.64C159.804 78.384 159.26 77.992 158.796 77.464C158.348 76.936 158.124 76.24 158.124 75.376C158.124 74.672 158.332 74.032 158.748 73.456C159.164 72.864 159.756 72.4 160.524 72.064C161.308 71.728 162.204 71.56 163.212 71.56C164.716 71.56 165.924 71.944 166.836 72.712C167.764 73.464 168.26 74.496 168.324 75.808H165.588C165.54 75.216 165.3 74.744 164.868 74.392C164.436 74.04 163.852 73.864 163.116 73.864C162.396 73.864 161.844 74 161.46 74.272C161.076 74.544 160.884 74.904 160.884 75.352C160.884 75.704 161.012 76 161.268 76.24C161.524 76.48 161.836 76.672 162.204 76.816C162.572 76.944 163.116 77.112 163.836 77.32C164.796 77.576 165.58 77.84 166.188 78.112C166.812 78.368 167.348 78.752 167.796 79.264C168.244 79.776 168.476 80.456 168.492 81.304C168.492 82.056 168.284 82.728 167.868 83.32C167.452 83.912 166.86 84.376 166.092 84.712C165.34 85.048 164.452 85.216 163.428 85.216ZM178.288 71.56C179.296 71.56 180.192 71.776 180.976 72.208C181.776 72.64 182.4 73.28 182.848 74.128C183.312 74.976 183.544 76 183.544 77.2V85H180.832V77.608C180.832 76.424 180.536 75.52 179.944 74.896C179.352 74.256 178.544 73.936 177.52 73.936C176.496 73.936 175.68 74.256 175.072 74.896C174.48 75.52 174.184 76.424 174.184 77.608V85H171.448V67.24H174.184V73.312C174.648 72.752 175.232 72.32 175.936 72.016C176.656 71.712 177.44 71.56 178.288 71.56ZM198.501 78.4L204.597 85H200.901L196.005 79.312V85H193.269V67.24H196.005V77.56L200.805 71.776H204.597L198.501 78.4ZM205.646 78.328C205.646 77 205.918 75.824 206.462 74.8C207.022 73.776 207.774 72.984 208.718 72.424C209.678 71.848 210.734 71.56 211.886 71.56C212.926 71.56 213.83 71.768 214.598 72.184C215.382 72.584 216.006 73.088 216.47 73.696V71.776H219.23V85H216.47V83.032C216.006 83.656 215.374 84.176 214.574 84.592C213.774 85.008 212.862 85.216 211.838 85.216C210.702 85.216 209.662 84.928 208.718 84.352C207.774 83.76 207.022 82.944 206.462 81.904C205.918 80.848 205.646 79.656 205.646 78.328ZM216.47 78.376C216.47 77.464 216.278 76.672 215.894 76C215.526 75.328 215.038 74.816 214.43 74.464C213.822 74.112 213.166 73.936 212.462 73.936C211.758 73.936 211.102 74.112 210.494 74.464C209.886 74.8 209.39 75.304 209.006 75.976C208.638 76.632 208.454 77.416 208.454 78.328C208.454 79.24 208.638 80.04 209.006 80.728C209.39 81.416 209.886 81.944 210.494 82.312C211.118 82.664 211.774 82.84 212.462 82.84C213.166 82.84 213.822 82.664 214.43 82.312C215.038 81.96 215.526 81.448 215.894 80.776C216.278 80.088 216.47 79.288 216.47 78.376ZM245.066 71.56C246.106 71.56 247.034 71.776 247.85 72.208C248.682 72.64 249.33 73.28 249.794 74.128C250.274 74.976 250.514 76 250.514 77.2V85H247.802V77.608C247.802 76.424 247.506 75.52 246.914 74.896C246.322 74.256 245.514 73.936 244.49 73.936C243.466 73.936 242.65 74.256 242.042 74.896C241.45 75.52 241.154 76.424 241.154 77.608V85H238.442V77.608C238.442 76.424 238.146 75.52 237.554 74.896C236.962 74.256 236.154 73.936 235.13 73.936C234.106 73.936 233.29 74.256 232.682 74.896C232.09 75.52 231.794 76.424 231.794 77.608V85H229.058V71.776H231.794V73.288C232.242 72.744 232.81 72.32 233.498 72.016C234.186 71.712 234.922 71.56 235.706 71.56C236.762 71.56 237.706 71.784 238.538 72.232C239.37 72.68 240.01 73.328 240.458 74.176C240.858 73.376 241.482 72.744 242.33 72.28C243.178 71.8 244.09 71.56 245.066 71.56ZM253.083 78.328C253.083 77 253.355 75.824 253.899 74.8C254.459 73.776 255.211 72.984 256.155 72.424C257.115 71.848 258.171 71.56 259.323 71.56C260.363 71.56 261.267 71.768 262.035 72.184C262.819 72.584 263.443 73.088 263.907 73.696V71.776H266.667V85H263.907V83.032C263.443 83.656 262.811 84.176 262.011 84.592C261.211 85.008 260.299 85.216 259.275 85.216C258.139 85.216 257.099 84.928 256.155 84.352C255.211 83.76 254.459 82.944 253.899 81.904C253.355 80.848 253.083 79.656 253.083 78.328ZM263.907 78.376C263.907 77.464 263.715 76.672 263.331 76C262.963 75.328 262.475 74.816 261.867 74.464C261.259 74.112 260.603 73.936 259.899 73.936C259.195 73.936 258.539 74.112 257.931 74.464C257.323 74.8 256.827 75.304 256.443 75.976C256.075 76.632 255.891 77.416 255.891 78.328C255.891 79.24 256.075 80.04 256.443 80.728C256.827 81.416 257.323 81.944 257.931 82.312C258.555 82.664 259.211 82.84 259.899 82.84C260.603 82.84 261.259 82.664 261.867 82.312C262.475 81.96 262.963 81.448 263.331 80.776C263.715 80.088 263.907 79.288 263.907 78.376ZM272.997 73.696C273.397 73.024 273.925 72.504 274.581 72.136C275.253 71.752 276.045 71.56 276.957 71.56V74.392H276.261C275.189 74.392 274.373 74.664 273.813 75.208C273.269 75.752 272.997 76.696 272.997 78.04V85H270.261V71.776H272.997V73.696ZM284.704 78.4L290.8 85H287.104L282.208 79.312V85H279.472V67.24H282.208V77.56L287.008 71.776H290.8L284.704 78.4ZM304.881 78.064C304.881 78.56 304.849 79.008 304.785 79.408H294.681C294.761 80.464 295.153 81.312 295.857 81.952C296.561 82.592 297.425 82.912 298.449 82.912C299.921 82.912 300.961 82.296 301.569 81.064H304.521C304.121 82.28 303.393 83.28 302.337 84.064C301.297 84.832 300.001 85.216 298.449 85.216C297.185 85.216 296.049 84.936 295.041 84.376C294.049 83.8 293.265 83 292.689 81.976C292.129 80.936 291.849 79.736 291.849 78.376C291.849 77.016 292.121 75.824 292.665 74.8C293.225 73.76 294.001 72.96 294.993 72.4C296.001 71.84 297.153 71.56 298.449 71.56C299.697 71.56 300.809 71.832 301.785 72.376C302.761 72.92 303.521 73.688 304.065 74.68C304.609 75.656 304.881 76.784 304.881 78.064ZM302.025 77.2C302.009 76.192 301.649 75.384 300.945 74.776C300.241 74.168 299.369 73.864 298.329 73.864C297.385 73.864 296.577 74.168 295.905 74.776C295.233 75.368 294.833 76.176 294.705 77.2H302.025ZM310.765 74.008V81.328C310.765 81.824 310.877 82.184 311.101 82.408C311.341 82.616 311.741 82.72 312.301 82.72H313.981V85H311.821C310.589 85 309.645 84.712 308.989 84.136C308.333 83.56 308.005 82.624 308.005 81.328V74.008H306.445V71.776H308.005V68.488H310.765V71.776H313.981V74.008H310.765Z" fill="#7C7C7C"/>
</svg>
