<svg width="29" height="29" viewBox="0 0 29 29" fill="none" xmlns="http://www.w3.org/2000/svg">
<path d="M5.93331 9.60841L6.69164 8.8355C7.53748 7.98966 8.93748 7.98966 9.81248 8.89383L9.84164 8.93758C10.5562 9.66675 11.5041 10.0167 12.5396 10.1188C13.9541 10.2501 15.325 11.0084 16.2291 12.3792C17.2208 13.9542 17.2062 16.0542 16.1708 17.6147C15.7803 18.2322 15.2551 18.7535 14.6346 19.1394C14.0141 19.5252 13.3143 19.7657 12.5877 19.8429C11.8611 19.92 11.1265 19.8318 10.4388 19.5849C9.75107 19.3379 9.12815 18.9385 8.61664 18.4167C7.79998 17.6147 7.33331 16.5792 7.21664 15.5001C7.09998 14.4355 6.67706 13.4292 5.93331 12.6855C5.08748 11.8542 5.08748 10.4542 5.93331 9.60841ZM12.0583 21.3334C10.3521 21.3334 8.76248 20.6772 7.58123 19.4667C6.56039 18.4167 5.91873 17.1042 5.75831 15.6751C5.71456 15.2376 5.58331 14.6688 5.23331 14.1438C4.35831 15.3542 3.83331 16.8126 3.83331 18.4167C3.83331 20.8084 4.99998 22.923 6.79373 24.2501H25.7083V22.7917C25.7083 17.5417 22.2229 13.0938 17.4541 11.6355C18.7521 13.6772 18.7229 16.4042 17.3958 18.4167C16.2291 20.2397 14.2166 21.3334 12.0583 21.3334ZM19.5541 9.02508H21.4062C22.675 9.02508 23.7833 9.91467 23.7833 11.5042V12.5834H25.6062V11.1251C25.6062 8.93758 23.6666 7.27508 21.4062 7.27508H19.5541C18.3437 7.27508 17.3083 6.07925 17.3083 4.85425C17.3083 3.62925 18.3437 2.72508 19.5541 2.72508V0.916748C17.3083 0.916748 15.5 2.72508 15.5 4.97092C15.5 7.21675 17.3083 9.02508 19.5541 9.02508ZM4.56248 9.0105C4.64998 8.86467 4.76664 8.71883 4.89789 8.573L5.65623 7.81466C5.78748 7.68341 5.93331 7.58133 6.07914 7.47925L4.02289 5.39383C4.22706 5.00008 4.15414 4.48966 3.83331 4.15425C3.62447 3.95096 3.34454 3.83721 3.0531 3.83721C2.76166 3.83721 2.48173 3.95096 2.27289 4.15425C2.06873 4.35841 1.96664 4.60633 1.95206 4.86883C1.68956 4.88341 1.44164 4.9855 1.23748 5.18966C0.814559 5.61258 0.814559 6.31258 1.23748 6.75008C1.57289 7.07091 2.06873 7.14383 2.47706 6.93966L4.56248 9.0105ZM24.8187 4.40216C25.5625 3.65841 26.0291 2.65216 26.0291 1.52925H24.2062C24.2062 2.73966 23.1854 3.7605 21.975 3.7605V5.56883C24.6875 5.56883 26.8166 7.7855 26.8166 10.498V14.0417H28.625V10.498C28.6323 9.22591 28.2785 7.97785 27.6047 6.89881C26.931 5.81977 25.9649 4.95404 24.8187 4.40216ZM5.29164 28.6251H25.7083C27.3271 28.6251 28.625 27.3272 28.625 25.7084H2.37498C2.37498 26.482 2.68227 27.2238 3.22925 27.7708C3.77623 28.3178 4.51809 28.6251 5.29164 28.6251Z" fill="#F6921E"/>
</svg>
