<svg width="31" height="31" viewBox="0 0 31 31" fill="none" xmlns="http://www.w3.org/2000/svg">
<path d="M15.5 0.916748C7.47913 0.916748 0.916626 7.47925 0.916626 15.5001C0.916626 23.5209 7.47913 30.0834 15.5 30.0834C23.5208 30.0834 30.0833 23.5209 30.0833 15.5001C30.0833 7.47925 23.5208 0.916748 15.5 0.916748ZM12 23.0834C11.6791 23.0834 11.2416 22.9667 10.8333 22.7917L10.002 24.8334L8.33954 24.2501L8.57288 23.6813C10.3229 19.2772 12.3354 14.2605 19.875 12.5834C19.875 12.5834 11.125 12.5834 8.28121 20.6772C8.28121 20.6772 6.74996 19.1459 6.74996 17.3959C6.74996 15.6459 8.49996 11.9272 12.875 11.0522C14.1145 10.8042 15.5 10.6147 16.8708 10.3959C20.3125 9.92925 23.6229 9.46258 24.25 8.20841C24.25 8.20841 21.625 23.0834 12 23.0834Z" fill="#019934"/>
</svg>
