<svg width="25" height="26" viewBox="0 0 25 26" fill="none" xmlns="http://www.w3.org/2000/svg">
<path fill-rule="evenodd" clip-rule="evenodd" d="M12.5628 0.510376H12.4371C11.3508 0.510376 10.4458 0.510376 9.72804 0.607043C8.96921 0.708543 8.28408 0.933293 7.73429 1.48308C7.18329 2.03408 6.95854 2.71921 6.85704 3.47683C6.78817 3.99279 6.76763 5.22408 6.76279 6.28017C4.31954 6.36113 2.85142 6.64629 1.83279 7.66613C0.416626 9.08108 0.416626 11.36 0.416626 15.9166C0.416626 20.4732 0.416626 22.7522 1.83279 24.1671C3.24775 25.5833 5.52667 25.5833 10.0833 25.5833H14.9166C19.4732 25.5833 21.7522 25.5833 23.1671 24.1671C24.5833 22.7522 24.5833 20.4732 24.5833 15.9166C24.5833 11.36 24.5833 9.08108 23.1671 7.66613C22.1485 6.64629 20.6804 6.36113 18.2371 6.28138C18.2323 5.22408 18.213 3.99279 18.1429 3.47804C18.0414 2.71921 17.8166 2.03408 17.2656 1.48429C16.7158 0.933293 16.0307 0.708543 15.2719 0.607043C14.5541 0.510376 13.6479 0.510376 12.5628 0.510376ZM16.4246 6.25238C16.4186 5.22892 16.4017 4.12813 16.3473 3.7185C16.2712 3.16146 16.1419 2.92221 15.9848 2.76513C15.8277 2.60804 15.5885 2.47875 15.0302 2.40263C14.4478 2.32529 13.6648 2.32288 12.5 2.32288C11.3351 2.32288 10.5521 2.32529 9.9685 2.40383C9.41146 2.47875 9.17221 2.60804 9.01513 2.76633C8.85804 2.92342 8.72875 3.16146 8.65263 3.7185C8.59825 4.12933 8.58012 5.22892 8.57529 6.25238C9.04775 6.24996 9.55163 6.24996 10.0833 6.24996H14.9166C15.4495 6.24996 15.9522 6.24996 16.4246 6.25238ZM12.5 10.177C12.7403 10.177 12.9708 10.2725 13.1408 10.4425C13.3107 10.6124 13.4062 10.8429 13.4062 11.0833V11.0954C14.7221 11.4265 15.8229 12.4644 15.8229 13.9023C15.8229 14.1427 15.7274 14.3732 15.5574 14.5431C15.3875 14.7131 15.157 14.8086 14.9166 14.8086C14.6763 14.8086 14.4458 14.7131 14.2758 14.5431C14.1059 14.3732 14.0104 14.1427 14.0104 13.9023C14.0104 13.4383 13.4956 12.7955 12.5 12.7955C11.5043 12.7955 10.9895 13.4383 10.9895 13.9023C10.9895 14.3663 11.5043 15.0104 12.5 15.0104C14.1735 15.0104 15.8229 16.1704 15.8229 17.9309C15.8229 19.3688 14.7221 20.4056 13.4062 20.7379V20.75C13.4062 20.9903 13.3107 21.2208 13.1408 21.3908C12.9708 21.5607 12.7403 21.6562 12.5 21.6562C12.2596 21.6562 12.0291 21.5607 11.8591 21.3908C11.6892 21.2208 11.5937 20.9903 11.5937 20.75V20.7379C10.2778 20.4068 9.17704 19.3688 9.17704 17.9309C9.17704 17.6906 9.27252 17.4601 9.44248 17.2901C9.61243 17.1201 9.84294 17.0247 10.0833 17.0247C10.3236 17.0247 10.5542 17.1201 10.7241 17.2901C10.8941 17.4601 10.9895 17.6906 10.9895 17.9309C10.9895 18.3949 11.5043 19.0378 12.5 19.0378C13.4956 19.0378 14.0104 18.3949 14.0104 17.9309C14.0104 17.4669 13.4956 16.8229 12.5 16.8229C10.8264 16.8229 9.17704 15.6629 9.17704 13.9023C9.17704 12.4644 10.2778 11.4265 11.5937 11.0954V11.0833C11.5937 10.8429 11.6892 10.6124 11.8591 10.4425C12.0291 10.2725 12.2596 10.177 12.5 10.177Z" fill="#019934"/>
</svg>
