<svg width="25" height="29" viewBox="0 0 25 29" fill="none" xmlns="http://www.w3.org/2000/svg">
<path fill-rule="evenodd" clip-rule="evenodd" d="M11.5348 1.01811C12.1571 0.784817 12.8429 0.784817 13.4652 1.01811L23.0902 4.62748C23.6145 4.82401 24.0664 5.17591 24.3853 5.63612C24.7042 6.09633 24.8751 6.64294 24.875 7.20286V14.577C24.875 16.8752 24.2351 19.128 23.0269 21.083C21.8187 23.038 20.0899 24.6179 18.0344 25.6457L13.4226 27.9502C13.1362 28.0935 12.8203 28.1681 12.5 28.1681C12.1797 28.1681 11.8638 28.0935 11.5774 27.9502L6.96563 25.6444C4.91005 24.6165 3.18131 23.0366 1.9731 21.0816C0.764885 19.1266 0.124951 16.8738 0.125001 14.5756V7.20423C0.124651 6.64408 0.29537 6.09717 0.614319 5.63669C0.933268 5.1762 1.38523 4.8241 1.90975 4.62748L11.5348 1.01811ZM13.875 14.1315C14.3992 13.8288 14.8089 13.3616 15.0406 12.8023C15.2722 12.243 15.3128 11.6229 15.1562 11.0382C14.9995 10.4535 14.6543 9.93682 14.174 9.56829C13.6938 9.19977 13.1053 9.00001 12.5 8.99998C11.8947 9.00001 11.3062 9.19977 10.826 9.56829C10.3457 9.93682 10.0005 10.4535 9.84383 11.0382C9.68715 11.6229 9.72778 12.243 9.95942 12.8023C10.1911 13.3616 10.6008 13.8288 11.125 14.1315V18.625C11.125 18.9897 11.2699 19.3394 11.5277 19.5973C11.7856 19.8551 12.1353 20 12.5 20C12.8647 20 13.2144 19.8551 13.4723 19.5973C13.7301 19.3394 13.875 18.9897 13.875 18.625V14.1315Z" fill="#FC0000"/>
</svg>
